<svg xmlns="http://www.w3.org/2000/svg" viewBox="0 0 86.87 87.16"><defs><style>.cls-1{fill:#ea8d72;}</style></defs><g id="Layer_2" data-name="Layer 2"><g id="Layer_1-2" data-name="Layer 1"><path class="cls-1" d="M43.27,87.16c-.91-.3-1.82-.61-2.73-.89-8.11-2.52-15.36-6.47-21.24-12.7a44.33,44.33,0,0,1-8.71-13.52,1.71,1.71,0,0,0-1.93-1.27c-2.24.09-4.49,0-6.73,0C.77,58.79.11,58.28,0,57.39a1.44,1.44,0,0,1,1.16-1.71,5.52,5.52,0,0,1,1.35-.13H84.35a6.78,6.78,0,0,1,1.35.12,1.4,1.4,0,0,1,1.17,1.55,1.39,1.39,0,0,1-1.17,1.46,5,5,0,0,1-1.09.12c-2.13,0-4.26.07-6.39,0a1.71,1.71,0,0,0-1.93,1.27A45.21,45.21,0,0,1,68.6,72.43,43.7,43.7,0,0,1,52.31,84c-2.61,1.1-5.34,1.9-8,2.83-.24.09-.46.2-.69.29ZM65.76,58.87H21.25a1.1,1.1,0,0,0,0,.32,6.16,6.16,0,0,0,.34.68C26.37,68.45,33.8,73.63,43,76.55a1.83,1.83,0,0,0,1.06,0c1.55-.56,3.11-1.09,4.61-1.75a34,34,0,0,0,16.5-14.66C65.36,59.73,65.52,59.35,65.76,58.87Zm-52.19,0c.14.39.22.66.33.9a41.18,41.18,0,0,0,8.38,12.33c5.63,5.69,12.51,9.21,20.11,11.48a3.1,3.1,0,0,0,2.06,0c1.57-.57,3.19-1,4.75-1.61,10.85-4.2,18.87-11.43,23.73-22.08.13-.28.21-.59.36-1-1.09,0-2,0-3,0a1.25,1.25,0,0,0-1.37.86A36.79,36.79,0,0,1,63,68.43a40.91,40.91,0,0,1-17.65,11,5.63,5.63,0,0,1-3.86,0,42.21,42.21,0,0,1-15.79-9.12,37.66,37.66,0,0,1-7.84-10.64c-.16-.33-.46-.81-.72-.83C16,58.77,14.86,58.82,13.57,58.82Z"/><path class="cls-1" d="M43.43,31.54q-20.49,0-41,0a6.91,6.91,0,0,1-1,0A1.51,1.51,0,0,1,0,29.9a1.49,1.49,0,0,1,1.48-1.57,16.28,16.28,0,0,1,2.21,0c.58,0,.82-.17.8-.78-.07-2-.1-3.91-.14-5.87,0-.26,0-.51,0-.77a1.86,1.86,0,0,1,2.07-2.13,16.71,16.71,0,0,0,14-7.9,15.79,15.79,0,0,0,2.67-8.75A1.83,1.83,0,0,1,25.17,0H61.71a1.84,1.84,0,0,1,2.1,2.1A17.08,17.08,0,0,0,78.47,18.58c.64.08,1.3.14,2,.16,1.5,0,2.16.71,2.13,2.23,0,2.13-.09,4.26-.17,6.39,0,.68.18,1,.9.93a14.74,14.74,0,0,1,1.88,0c1.11.07,1.71.65,1.71,1.61s-.59,1.53-1.7,1.63c-.29,0-.57,0-.86,0Zm0-3.26h3.24q12.35,0,24.7,0a3.08,3.08,0,0,0,1-.37,4,4,0,0,0-.82-.77c-.84-.42-1.74-.71-2.57-1.13A27,27,0,0,1,55.44,10.93c-.24-.64-.53-.91-1.23-.87a25.33,25.33,0,0,1-2.89,0c-1.25-.06-1.89-.82-1.71-1.93.13-.81.76-1.29,1.83-1.31,1.45,0,2.9,0,4.34,0a1.89,1.89,0,0,1,2.16,1.62A23.55,23.55,0,0,0,73.08,24.23c1.78.65,2.88,1.33,2.51,3.37-.1.51.19.7.7.69a15.86,15.86,0,0,1,1.95,0c.73.06,1-.21,1-.95,0-1.57,0-3.13,0-4.69,0-.57-.22-.72-.77-.85a32.14,32.14,0,0,1-5.71-1.59C65.9,17.09,61.91,11.66,60.76,4.16c-.12-.75-.37-.91-1.07-.91q-16.26,0-32.53,0c-.12,0-.26,0-.34,0-.23.18-.57.35-.63.59-.2.79-.27,1.62-.46,2.42A20.36,20.36,0,0,1,8.41,21.81c-.68.09-.86.34-.84,1,0,1.19,0,2.39,0,3.58,0,2.35-.11,1.9,2,1.93,1.69,0,1.69,0,1.7-1.73,0-1.14.31-1.55,1.41-1.91.51-.17,1-.32,1.53-.51A24,24,0,0,0,28.94,8.42,1.86,1.86,0,0,1,31,6.82c1.47,0,2.95,0,4.43,0,1.17,0,1.81.61,1.83,1.58s-.63,1.62-1.84,1.66a23.24,23.24,0,0,1-2.64,0c-.78-.06-1.13.22-1.41,1A26.91,26.91,0,0,1,16.78,26.5c-.62.28-1.28.49-1.88.79a.87.87,0,0,0-.37.64c0,.1.35.28.56.34a3.21,3.21,0,0,0,.76,0Z"/><path class="cls-1" d="M35.84,43.67V42.52c0-1.82,0-3.63,0-5.45,0-1.32.76-2,1.9-1.84.85.12,1.33.76,1.35,1.88,0,1.36,0,2.73,0,4.09,0,2.92,0,5.85,0,8.77,0,1.09-.46,1.74-1.34,1.92a1.65,1.65,0,0,1-1.84-1c-.08-.15-.16-.3-.25-.45q-1.74-3.12-3.5-6.24a2.24,2.24,0,0,0-.67-.78c0,.28-.06.56-.06.85,0,1.9,0,3.8,0,5.7,0,1.1-.44,1.74-1.22,1.91-1.16.25-2-.44-2-1.77s0-2.9,0-4.35c0-2.87,0-5.73,0-8.6,0-1.09.46-1.74,1.33-1.92a1.66,1.66,0,0,1,1.85,1c.08.15.16.3.25.45,1.19,2.13,2.39,4.25,3.59,6.38.12.22.26.43.4.64Z"/><path class="cls-1" d="M63.81,43.42v3.3c0,1.11,0,2.21,0,3.32s-.64,1.86-1.66,1.84-1.56-.66-1.58-1.84c0-1.84,0-3.69,0-5.53,0-2.47,0-4.94,0-7.42a1.71,1.71,0,0,1,1.27-1.88c.74-.2,1.37.14,1.91,1,.09.15.17.3.25.45l3.6,6.38a1.54,1.54,0,0,0,.57.61c0-.29,0-.57,0-.86,0-1.9,0-3.81,0-5.71,0-1.37.76-2.07,1.93-1.9.86.13,1.32.8,1.32,2q0,4.26,0,8.52c0,1.45,0,2.89,0,4.34a1.69,1.69,0,0,1-1.27,1.8c-.72.2-1.35-.13-1.87-1-.09-.15-.17-.3-.25-.45-1.17-2.07-2.33-4.16-3.5-6.23-.17-.29-.35-.57-.52-.85Z"/><path class="cls-1" d="M45.07,42c0,1.59,0,3.18,0,4.77a1.78,1.78,0,1,0,3.55,0c0-3.17,0-6.35,0-9.53,0-1.21.43-1.88,1.27-2,1.19-.21,2,.51,2,1.92q0,4.26,0,8.52a16.65,16.65,0,0,1-.16,2.11,4.71,4.71,0,0,1-4.88,4.08A4.65,4.65,0,0,1,42,47.79a45,45,0,0,1-.17-4.5q0-3.15,0-6.3a1.71,1.71,0,0,1,1.62-1.85A1.75,1.75,0,0,1,45.06,37c0,.2,0,.4,0,.59Z"/><path class="cls-1" d="M6.73,43.57c0,1.16,0,2.33,0,3.49a1.67,1.67,0,0,0,1.44,1.65,1.76,1.76,0,0,0,2-1c.18-.42.19-.72-.32-.94-1-.44-1.26-1-1.1-1.84s.71-1.21,1.68-1.28a10.29,10.29,0,0,1,1.36,0,1.71,1.71,0,0,1,1.76,1.81,12.29,12.29,0,0,1-.23,2.78c-.54,2.41-2.57,3.78-5.23,3.64a4.5,4.5,0,0,1-4.4-4.09,63.49,63.49,0,0,1,0-8.39C3.87,36.6,6.17,35,9.19,35.25a4.87,4.87,0,0,1,4.31,4.81,1.53,1.53,0,0,1-1.28,1.57,1.46,1.46,0,0,1-1.79-1.05,6.24,6.24,0,0,1-.16-.75,1.75,1.75,0,0,0-2-1.46,1.68,1.68,0,0,0-1.56,1.71C6.71,41.24,6.73,42.41,6.73,43.57Z"/><path class="cls-1" d="M16.25,43.5c0-2.07,0-4.14,0-6.21,0-1.53.65-2.18,2.18-2.19s3.35,0,5,0c1.09,0,1.72.46,1.88,1.25.21,1.14-.44,1.93-1.73,2-1.05,0-2.1,0-3.15,0-.76-.05-1.05.22-.94,1,0,.17,0,.34,0,.51,0,.63-.19,1.43.12,1.82s1.13.21,1.72.29c1.07.13,1.62.68,1.62,1.62s-.55,1.48-1.62,1.61h-.08c-.56,0-1.4-.09-1.59.2a3.55,3.55,0,0,0-.17,1.81c0,1.76-.21,1.53,1.53,1.55.83,0,1.65,0,2.47,0,1.22,0,1.86.63,1.85,1.65S24.71,52,23.54,52q-2.68,0-5.37,0a1.78,1.78,0,0,1-1.92-2C16.24,47.82,16.25,45.66,16.25,43.5Z"/><path class="cls-1" d="M74.18,43.55V37.33c0-1.58.64-2.22,2.22-2.23h4.94c1.09,0,1.74.44,1.91,1.21.26,1.16-.43,2-1.76,2-1,0-2,.06-3.06,0-.79-.05-1.07.22-1,1s0,1.31,0,2a.91.91,0,0,0,.58.58c.58.12,1.19.06,1.76.18a1.54,1.54,0,0,1,0,3c-.57.12-1.19.06-1.76.18a.88.88,0,0,0-.59.58c-.07.76,0,1.53,0,2.29,0,.55.24.67.72.67,1.11,0,2.22,0,3.32,0s1.64.49,1.78,1.27a1.54,1.54,0,0,1-1.58,2c-1.92.07-3.86.07-5.78,0-1.13,0-1.71-.78-1.71-2C74.17,47.81,74.18,45.68,74.18,43.55Z"/><path class="cls-1" d="M57.85,43.63c0,2.1,0,4.2,0,6.29,0,1.28-.6,2-1.63,2s-1.59-.66-1.62-1.88c0-1.44,0-2.89,0-4.33,0-2.84,0-5.67,0-8.5,0-1.28.6-2,1.63-2s1.61.68,1.62,2C57.86,39.33,57.85,41.48,57.85,43.63Z"/><path class="cls-1" d="M45,8.48a1.52,1.52,0,0,1-3,0,1.52,1.52,0,1,1,3,0Z"/></g></g></svg>