<svg xmlns="http://www.w3.org/2000/svg" viewBox="0 0 91.17 90.05"><defs><style>.cls-1{isolation:isolate;}.cls-2{fill:#ea8d72;}</style></defs><g id="Layer_2" data-name="Layer 2"><g id="Layer_1-2" data-name="Layer 1"><g class="cls-1"><path class="cls-2" d="M23.1,6.44c2.33.14,4.43.26,6.53.4,1.47.1,2.93.23,4.39.32a.92.92,0,0,0,.58-.23C36.5,5.3,38.37,3.63,40.28,2a7.9,7.9,0,0,1,10.63.09c1.87,1.62,3.69,3.3,5.63,4.84a3.2,3.2,0,0,0,1.91.22c1,0,2-.24,2.95-.31,2.39-.14,4.77-.31,7.16-.36a7.53,7.53,0,0,1,6.82,4.74c.46,1.25.74,2.58,1.08,3.88.49,1.88.86,3.8,1.51,5.62.21.58,1.1,1,1.74,1.34,2.73,1.67,5.54,3.21,8.2,5A7.56,7.56,0,0,1,91,32c.48,2.22-.51,4-1.26,5.92-.9,2.3-1.88,4.56-2.81,6.85a.93.93,0,0,0,.08.58c1.23,3,2.52,5.91,3.68,8.9a6.13,6.13,0,0,1,.47,2.85,8.19,8.19,0,0,1-4,6.33c-3,1.76-6,3.51-8.92,5.34-.38.24-.48,1-.63,1.53-.36,1.38-.68,2.77-1,4.15-.24,1-.49,2-.74,3A7.69,7.69,0,0,1,70.93,83a8.61,8.61,0,0,1-4.5.41c-1.23-.18-2.49-.12-3.73-.21-1-.07-2.06-.22-3.09-.32a20.51,20.51,0,0,0-2.48-.15c-.3,0-.61.34-.87.57-2.08,1.76-4.08,3.63-6.25,5.27a8.89,8.89,0,0,1-3.21,1.29c-3,.73-5.23-.68-7.33-2.53-1.63-1.44-3.32-2.81-4.91-4.29-.68-.64-1.34-.17-2-.18-1.28,0-2.56.2-3.85.31-.75.07-1.5.13-2.25.17a26,26,0,0,1-4.31.16,7.41,7.41,0,0,1-6.12-4.09,21.3,21.3,0,0,1-1.25-3.79,51.16,51.16,0,0,1-1.4-5.68c-.25-1.6-1.61-1.77-2.59-2.39C8.4,66,5.87,64.67,3.47,63.13A7.7,7.7,0,0,1,.14,58c-.45-2,.27-3.77,1-5.53,1-2.44,2-4.84,3-7.27A1.22,1.22,0,0,0,4,44.38C3,41.91,1.88,39.48.93,37A10.94,10.94,0,0,1,0,33.19a7.74,7.74,0,0,1,4.13-6.84c2.36-1.39,4.67-2.88,7.11-4.12,1.45-.73,1.49-2.06,1.9-3.25.87-2.53,1.51-5.15,2.51-7.63A7.44,7.44,0,0,1,23.1,6.44ZM5.26,56.31A2.71,2.71,0,0,0,6.5,58.92c3.34,2,6.71,3.93,10,6a4.29,4.29,0,0,1,1.41,1.73,10.38,10.38,0,0,1,.59,2.22c.52,2.14,1,4.29,1.58,6.42a6.89,6.89,0,0,0,.8,2,2.4,2.4,0,0,0,2.47,1c1.3-.12,2.6-.15,3.9-.25,1-.08,2-.21,3-.29a34.89,34.89,0,0,0,3.85-.26,3.17,3.17,0,0,1,2.82.81c2.28,1.95,4.53,3.92,6.8,5.87a2.66,2.66,0,0,0,3.49,0c2.36-2,4.67-4.07,7.07-6a3.72,3.72,0,0,1,2.07-.74,29.25,29.25,0,0,1,3.21.3c1.26.1,2.52.12,3.77.2,1.57.1,3.14.14,4.68.37,1.33.2,2.59-1.16,2.81-2.45.18-1.08.47-2.14.73-3.2.39-1.62.84-3.24,1.19-4.87a4.22,4.22,0,0,1,2.1-3.11c3.27-1.86,6.49-3.82,9.72-5.76a2.45,2.45,0,0,0,1.08-3c-1.21-3-2.49-6-3.7-9-.35-.87-.94-1.69-.48-2.77,1.36-3.21,2.63-6.46,4-9.67a2.69,2.69,0,0,0-1-3.54c-3-1.8-6.06-3.56-9.08-5.36-1-.59-2.08-1.11-2.39-2.39-.18-.73-.33-1.47-.51-2.21-.58-2.37-1.1-4.76-1.77-7.1a4.21,4.21,0,0,0-1.24-1.81c-.71-.66-1.64-.47-2.57-.37-2,.21-4,.25-6,.39-1.57.1-3.13.23-4.69.35A2.92,2.92,0,0,1,54,11.7c-2.22-2-4.48-3.93-6.74-5.86a2.61,2.61,0,0,0-3.49,0c-1.92,1.64-3.82,3.32-5.74,5a5.79,5.79,0,0,1-1.79,1.35,9.05,9.05,0,0,1-3,.26c-1.81-.1-3.61-.34-5.42-.49-1.5-.14-3-.24-4.51-.36a2.79,2.79,0,0,0-2.87,1.7q-1.56,4.89-3.11,9.8a3.9,3.9,0,0,1-1.67,2.53c-3,1.71-5.94,3.46-8.89,5.22a2.64,2.64,0,0,0-1.22,3.69c1.27,3.09,2.53,6.18,3.85,9.25a2.72,2.72,0,0,1,0,2.41c-.34.71-.6,1.46-.9,2.18C7.76,50.18,7,52,6.23,53.82,5.85,54.75,5.5,55.69,5.26,56.31Z"/><path class="cls-2" d="M47.85,73.94a29.25,29.25,0,0,1-22-7.54,28,28,0,0,1-9.07-15.89A27.71,27.71,0,0,1,22,27.8,28.4,28.4,0,0,1,42.33,16.21a28.5,28.5,0,0,1,22.9,7.39,27.86,27.86,0,0,1,9.45,18.22,27.8,27.8,0,0,1-6.51,21.54C63,69.59,56.26,73,47.85,73.94ZM21.5,46.72c.84,6.61,3.08,11.24,6.94,15a23.68,23.68,0,0,0,20.09,6.88A22.93,22.93,0,0,0,62.35,62a23,23,0,0,0,7.07-19.89A22.47,22.47,0,0,0,62.76,28.4a23.64,23.64,0,0,0-20.2-7,23,23,0,0,0-14,6.73A22.75,22.75,0,0,0,21.5,46.72Z"/><path class="cls-2" d="M42.88,55.76A8.94,8.94,0,0,1,41,54.66c-3.56-3.45-7.08-7-10.6-10.45a2.6,2.6,0,1,1,3.86-3.46q4.1,4,8.14,8c.39.38.63.39,1,0,4.43-4.42,8.87-8.84,13.36-13.2a4.51,4.51,0,0,1,2.19-1.12c.93-.18,2,.83,2.4,1.75a2.19,2.19,0,0,1-.58,2.6c-4.52,4.54-9.09,9-13.65,13.55-.79.78-1.55,1.61-2.4,2.33A13,13,0,0,1,42.88,55.76Z"/></g></g></g></svg>