<svg xmlns="http://www.w3.org/2000/svg" viewBox="0 0 86.53 86.54"><defs><style>.cls-1{fill:#ea8d72;}</style></defs><g id="Layer_2" data-name="Layer 2"><g id="Layer_1-2" data-name="Layer 1"><path class="cls-1" d="M44.82,0c1.09.12,2.18.23,3.26.36a42.31,42.31,0,0,1,26.31,12.9A42.08,42.08,0,0,1,86.18,37.81,43,43,0,0,1,51.91,85.6c-13.5,2.72-25.76-.48-36.36-9.32A41.9,41.9,0,0,1,.78,50.14a57.08,57.08,0,0,1-.54-6.55A2.83,2.83,0,0,1,3,40.48a3,3,0,0,1,2.88,3.1c.67,16.1,8.37,27.52,23,34.27a32.5,32.5,0,0,0,12.52,2.88c13.75.5,24.7-4.88,32.8-16a34.78,34.78,0,0,0,6.57-17.52c1.19-12.76-3-23.52-12.47-32.13a36,36,0,0,0-20-9.1,37.51,37.51,0,0,0-37.75,19.1c-.25.44-.46.9-.75,1.49.41,0,.7.1,1,.11,1.66,0,3.32,0,5,0a2.77,2.77,0,1,1-.05,5.54c-3.94,0-7.89-.06-11.83,0C2,32.37.62,31.81,0,29.94V15.39a1.73,1.73,0,0,0,.16-.3,2.86,2.86,0,0,1,3.1-2.16A2.91,2.91,0,0,1,5.7,16.08c0,1.52,0,3,0,4.56v1l.25,0,.44-.67Q17.67,3,38.78.35c1-.13,2-.23,3-.35Z"/><path class="cls-1" d="M46.12,58.18c.43-.26.68-.38.9-.54,3.33-2.21,6.65-4.45,10-6.64a1.59,1.59,0,0,0,.83-1.51q0-6.21,0-12.42a1.52,1.52,0,0,0-.79-1.44c-4.35-2.88-8.69-5.76-13-8.68a1.11,1.11,0,0,0-1.5,0c-.85.63-1.76,1.2-2.76,1.87.38.29.65.52.94.71,4.21,2.82,8.44,5.62,12.65,8.45a2.82,2.82,0,1,1-3.22,4.6l-10-6.66-6.75-4.5c-2.14-1.44-2.13-3.7,0-5.14,2.63-1.75,5.27-3.48,7.87-5.26a3.23,3.23,0,0,1,4,0q8.28,5.57,16.59,11.07a3.13,3.13,0,0,1,1.53,2.82q0,8.42,0,16.82A3,3,0,0,1,62,54.43Q53.58,60,45.18,65.64a3.11,3.11,0,0,1-3.77,0Q33.06,60,24.67,54.47a3,3,0,0,1-1.48-2.75c0-5.61,0-11.22,0-16.83a2.82,2.82,0,0,1,4.52-2.47l17,11.34a3.07,3.07,0,0,1,1.4,2.73q0,5.28,0,10.57ZM28.88,40a5.87,5.87,0,0,0-.12.73c0,3,0,6,0,9a1.66,1.66,0,0,0,.71,1.1c3.35,2.28,6.73,4.52,10.1,6.77.23.15.47.27.82.47,0-.4,0-.67,0-.94,0-2.87,0-5.74,0-8.61a1.51,1.51,0,0,0-.79-1.43c-3.34-2.2-6.66-4.43-10-6.64C29.48,40.36,29.24,40.23,28.88,40Z"/></g></g></svg>